<svg width="100" height="43" viewBox="0 0 100 43" fill="none" xmlns="http://www.w3.org/2000/svg">
<path d="M6.53315 42.4219H0.527294C0.214794 42.4219 0.0585442 42.2852 0.0585442 42.0117L-4.95911e-05 1.14258C-4.95911e-05 0.830078 0.1562 0.673828 0.4687 0.673828H5.88862L16.0253 24.3164L15.7324 1.14258C15.7324 0.830078 15.9082 0.673828 16.2597 0.673828H22.207C22.4414 0.673828 22.5585 0.830078 22.5585 1.14258L22.6171 42.0703C22.6171 42.3047 22.5195 42.4219 22.3242 42.4219H17.0507L6.65034 20.332L7.08979 41.9531C7.08979 42.2656 6.90425 42.4219 6.53315 42.4219ZM37.7355 43.0078C35.6066 43.0078 33.6437 42.4609 31.8468 41.3672C30.0695 40.2734 28.6339 38.8184 27.5402 37.002C26.466 35.166 25.9289 33.1543 25.9289 30.9668L25.9874 11.9531C25.9874 9.72656 26.5246 7.72461 27.5988 5.94727C28.6535 4.15039 30.0792 2.71484 31.8761 1.64062C33.673 0.546875 35.6261 0 37.7355 0C39.923 0 41.8859 0.537109 43.6242 1.61133C45.382 2.68555 46.7882 4.13086 47.8429 5.94727C48.9171 7.74414 49.4542 9.74609 49.4542 11.9531L49.5128 30.9668C49.5128 33.1543 48.9855 35.1562 47.9308 36.9727C46.8566 38.8086 45.4308 40.2734 43.6535 41.3672C41.8761 42.4609 39.9035 43.0078 37.7355 43.0078ZM37.7355 35.7715C38.9464 35.7715 40.0011 35.2832 40.8996 34.3066C41.798 33.3105 42.2472 32.1973 42.2472 30.9668L42.1886 11.9531C42.1886 10.625 41.7687 9.50195 40.9289 8.58398C40.089 7.66602 39.0246 7.20703 37.7355 7.20703C36.505 7.20703 35.4503 7.65625 34.5714 8.55469C33.6925 9.45313 33.2531 10.5859 33.2531 11.9531V30.9668C33.2531 32.2754 33.6925 33.4082 34.5714 34.3652C35.4503 35.3027 36.505 35.7715 37.7355 35.7715ZM63.8988 42.3633L53.1468 42.4219C52.9515 42.4219 52.8539 42.3242 52.8539 42.1289L52.971 0.908203C52.971 0.751953 53.0492 0.673828 53.2054 0.673828L64.4261 0.615234C66.6527 0.556641 68.6644 1.06445 70.4613 2.13867C72.2777 3.21289 73.723 4.66797 74.7972 6.50391C75.891 8.32031 76.4378 10.332 76.4378 12.5391V29.7656C76.4378 32.0703 75.8812 34.1797 74.7679 36.0938C73.6351 37.9883 72.1312 39.502 70.2562 40.6348C68.3812 41.748 66.2621 42.3242 63.8988 42.3633ZM64.4261 7.79297L60.2367 7.85156L60.1781 35.0391H63.8988C65.3832 35.0391 66.6332 34.5215 67.6488 33.4863C68.6644 32.4512 69.1722 31.2109 69.1722 29.7656V12.4805C69.1722 11.2109 68.7035 10.1074 67.766 9.16992C66.8285 8.21289 65.7152 7.75391 64.4261 7.79297ZM99.5835 42.4219H80.189C80.0328 42.4219 79.9546 42.3242 79.9546 42.1289L80.0132 0.908203C80.0132 0.751953 80.0914 0.673828 80.2476 0.673828H99.5249C99.6812 0.673828 99.7593 0.771484 99.7593 0.966797V7.67578C99.7593 7.83203 99.6812 7.91016 99.5249 7.91016H87.2203V17.2852H99.5249C99.6812 17.2852 99.7593 17.3633 99.7593 17.5195L99.8179 24.3164C99.8179 24.4727 99.7398 24.5508 99.5835 24.5508H87.2203V35.0391H99.5835C99.7398 35.0391 99.8179 35.1367 99.8179 35.332V42.1875C99.8179 42.3438 99.7398 42.4219 99.5835 42.4219Z" fill="#0F0F0F"/>
</svg>
