<svg width="656" height="530" viewBox="0 0 656 530" fill="none" xmlns="http://www.w3.org/2000/svg">
<g clip-path="url(#clip0_281_15)">
<rect x="7.5" y="7.5" width="641" height="515" rx="77.5" stroke="#FF6E14" stroke-width="15"/>
<rect x="40" y="40" width="576" height="450" rx="50" fill="#3D2FA9"/>
<path d="M122 256V116H155.775C168.842 116 178.263 118.654 184.038 123.962C189.871 129.212 192.992 137.933 193.4 150.125C193.575 155.025 193.663 159.575 193.663 163.775C193.663 167.975 193.575 172.525 193.4 177.425C192.992 189.558 189.871 198.279 184.038 203.587C178.263 208.896 168.842 211.55 155.775 211.55H148.25V256H122ZM148.25 188.45H155.775C159.45 188.45 162.221 187.604 164.088 185.912C165.954 184.221 166.975 181.858 167.15 178.825C167.325 175.967 167.442 172.758 167.5 169.2C167.558 165.583 167.558 161.996 167.5 158.437C167.442 154.821 167.325 151.583 167.15 148.725C166.975 145.633 165.954 143.271 164.088 141.637C162.221 139.946 159.45 139.1 155.775 139.1H148.25V188.45ZM240.773 257.75C227.94 257.75 218.636 255.037 212.861 249.612C207.144 244.187 204.14 235.175 203.848 222.575C203.731 216.858 203.644 210.908 203.586 204.725C203.527 198.542 203.498 192.271 203.498 185.912C203.498 179.554 203.527 173.283 203.586 167.1C203.644 160.917 203.731 154.967 203.848 149.25C204.14 136.708 207.144 127.754 212.861 122.387C218.636 116.962 227.94 114.25 240.773 114.25C253.665 114.25 262.911 116.962 268.511 122.387C274.111 127.754 277.115 136.708 277.523 149.25C277.756 155.083 277.931 161.092 278.048 167.275C278.165 173.458 278.223 179.729 278.223 186.087C278.223 192.387 278.165 198.629 278.048 204.812C277.931 210.937 277.756 216.858 277.523 222.575C277.115 235.175 274.111 244.187 268.511 249.612C262.911 255.037 253.665 257.75 240.773 257.75ZM240.773 236.4C244.215 236.4 246.811 235.642 248.561 234.125C250.311 232.55 251.215 230.333 251.273 227.475C251.565 221.525 251.769 214.992 251.886 207.875C252.002 200.758 252.061 193.437 252.061 185.912C252.061 178.387 252.002 171.067 251.886 163.95C251.769 156.833 251.565 150.3 251.273 144.35C251.215 141.55 250.281 139.392 248.473 137.875C246.665 136.358 244.098 135.6 240.773 135.6C237.448 135.6 234.852 136.358 232.986 137.875C231.177 139.392 230.215 141.55 230.098 144.35C229.865 150.3 229.661 156.833 229.486 163.95C229.369 171.067 229.311 178.387 229.311 185.912C229.311 193.437 229.369 200.758 229.486 207.875C229.661 214.992 229.865 221.525 230.098 227.475C230.215 230.333 231.177 232.55 232.986 234.125C234.852 235.642 237.448 236.4 240.773 236.4ZM291.189 256V116H317.439V232.9H351.914V256H291.189ZM361.6 256V116H387.85V256H361.6ZM418.469 256V139.1H395.982V116H467.207V139.1H444.719V256H418.469ZM475.247 256V116H535.797V139.1H501.497V173.225H534.047V196.325H501.497V232.9H535.797V256H475.247ZM158.313 414.75C145.129 414.75 135.738 412.037 130.138 406.612C124.596 401.187 121.679 392.175 121.388 379.575C121.329 374.733 121.271 369.133 121.213 362.775C121.154 356.417 121.125 349.825 121.125 343C121.125 336.117 121.154 329.496 121.213 323.137C121.271 316.721 121.329 311.033 121.388 306.075C121.563 295.4 124.538 286.942 130.313 280.7C136.146 274.4 145.479 271.25 158.313 271.25C170.913 271.25 180.042 273.962 185.7 279.387C191.358 284.754 194.363 293.708 194.713 306.25C194.771 308.175 194.8 310.275 194.8 312.55C194.8 314.767 194.771 317.012 194.713 319.287C194.654 321.504 194.596 323.575 194.538 325.5H168.288C168.346 323.342 168.404 320.804 168.463 317.887C168.521 314.912 168.55 311.967 168.55 309.05C168.55 306.075 168.521 303.508 168.463 301.35C168.404 298.55 167.471 296.392 165.663 294.875C163.913 293.358 161.463 292.6 158.313 292.6C154.988 292.6 152.392 293.358 150.525 294.875C148.717 296.392 147.754 298.55 147.638 301.35C147.404 307.475 147.229 314.096 147.113 321.212C147.054 328.329 147.025 335.592 147.025 343C147.025 350.408 147.054 357.671 147.113 364.788C147.229 371.846 147.404 378.408 147.638 384.475C147.754 387.333 148.717 389.55 150.525 391.125C152.392 392.642 154.988 393.4 158.313 393.4C161.754 393.4 164.408 392.642 166.275 391.125C168.142 389.55 169.104 387.333 169.163 384.475C169.221 382.375 169.25 379.867 169.25 376.95C169.308 373.975 169.308 371.029 169.25 368.112C169.25 365.137 169.221 362.6 169.163 360.5H195.413C195.529 363.3 195.588 366.479 195.588 370.037C195.588 373.596 195.529 376.775 195.413 379.575C195.063 392.175 192 401.187 186.225 406.612C180.508 412.037 171.204 414.75 158.313 414.75ZM207.791 413V273H234.041V330.225H252.416V273H278.666V413H252.416V353.325H234.041V413H207.791ZM287.478 413L306.903 273H348.203L367.628 413H340.678L337.703 383.775H317.403L314.428 413H287.478ZM319.853 360.675H335.253L332.103 329.7L330.003 296.1H325.103L323.003 329.7L319.853 360.675ZM410.988 414.75C398.155 414.75 388.85 412.037 383.075 406.612C377.359 401.187 374.355 392.175 374.063 379.575C373.946 373.858 373.859 367.908 373.8 361.725C373.742 355.542 373.713 349.271 373.713 342.912C373.713 336.554 373.742 330.283 373.8 324.1C373.859 317.917 373.946 311.967 374.063 306.25C374.355 293.708 377.359 284.754 383.075 279.387C388.85 273.962 398.155 271.25 410.988 271.25C423.88 271.25 433.125 273.962 438.725 279.387C444.325 284.754 447.33 293.708 447.738 306.25C447.971 312.083 448.146 318.092 448.263 324.275C448.38 330.458 448.438 336.729 448.438 343.087C448.438 349.387 448.38 355.629 448.263 361.812C448.146 367.937 447.971 373.858 447.738 379.575C447.33 392.175 444.325 401.187 438.725 406.612C433.125 412.037 423.88 414.75 410.988 414.75ZM410.988 393.4C414.43 393.4 417.025 392.642 418.775 391.125C420.525 389.55 421.43 387.333 421.488 384.475C421.78 378.525 421.984 371.992 422.1 364.875C422.217 357.758 422.275 350.437 422.275 342.912C422.275 335.387 422.217 328.067 422.1 320.95C421.984 313.833 421.78 307.3 421.488 301.35C421.43 298.55 420.496 296.392 418.688 294.875C416.88 293.358 414.313 292.6 410.988 292.6C407.663 292.6 405.067 293.358 403.2 294.875C401.392 296.392 400.43 298.55 400.313 301.35C400.08 307.3 399.875 313.833 399.7 320.95C399.584 328.067 399.525 335.387 399.525 342.912C399.525 350.437 399.584 357.758 399.7 364.875C399.875 371.992 400.08 378.525 400.313 384.475C400.43 387.333 401.392 389.55 403.2 391.125C405.067 392.642 407.663 393.4 410.988 393.4ZM495.967 414.75C483.133 414.75 473.975 412.037 468.492 406.612C463.067 401.187 460.092 392.175 459.567 379.575C459.508 377.708 459.479 375.667 459.479 373.45C459.479 371.175 459.538 368.929 459.654 366.712C459.771 364.437 459.975 362.367 460.267 360.5H484.942C484.708 364.758 484.563 368.958 484.504 373.1C484.446 377.242 484.592 381.033 484.942 384.475C485.233 387.333 486.254 389.55 488.004 391.125C489.813 392.642 492.467 393.4 495.967 393.4C499.408 393.4 501.917 392.642 503.492 391.125C505.125 389.55 506.117 387.333 506.467 384.475C506.7 382.492 506.846 380.537 506.904 378.612C507.021 376.629 507.021 374.675 506.904 372.75C506.846 370.767 506.7 368.783 506.467 366.8C506.233 364.35 505.475 362.133 504.192 360.15C502.908 358.167 500.867 356.825 498.067 356.125L483.717 352.45C477.65 350.875 472.838 348.629 469.279 345.712C465.721 342.737 463.125 339.062 461.492 334.687C459.917 330.312 459.042 325.208 458.867 319.375C458.808 316.808 458.779 314.533 458.779 312.55C458.779 310.508 458.808 308.408 458.867 306.25C459.217 297.908 460.617 291.171 463.067 286.037C465.575 280.904 469.483 277.171 474.792 274.837C480.1 272.446 487.158 271.25 495.967 271.25C508.392 271.25 517.404 273.962 523.004 279.387C528.604 284.754 531.667 293.708 532.192 306.25C532.308 308.758 532.308 311.821 532.192 315.437C532.133 319.054 532.017 322.408 531.842 325.5H506.642C506.817 321.475 506.933 317.45 506.992 313.425C507.05 309.4 506.992 305.375 506.817 301.35C506.758 298.55 505.738 296.392 503.754 294.875C501.829 293.358 499.233 292.6 495.967 292.6C492.467 292.6 489.871 293.358 488.179 294.875C486.488 296.392 485.467 298.55 485.117 301.35C484.767 304.325 484.592 307.329 484.592 310.362C484.592 313.396 484.767 316.4 485.117 319.375C485.408 321.708 486.225 323.837 487.567 325.762C488.908 327.687 491.067 329 494.042 329.7L506.467 332.675C513 334.25 518.133 336.583 521.867 339.675C525.658 342.708 528.371 346.5 530.004 351.05C531.696 355.542 532.658 360.792 532.892 366.8C532.95 368.142 532.979 369.542 532.979 371C532.979 372.458 532.95 373.917 532.892 375.375C532.833 376.833 532.775 378.233 532.717 379.575C532.192 392.175 529.158 401.187 523.617 406.612C518.133 412.037 508.917 414.75 495.967 414.75Z" fill="white"/>
</g>
<defs>
<clipPath id="clip0_281_15">
<rect width="656" height="530" fill="white"/>
</clipPath>
</defs>
</svg>
